<svg width="156" height="121" viewBox="0 0 156 121" fill="none" xmlns="http://www.w3.org/2000/svg">
<g opacity="0.1" filter="url(#filter0_d_180_1999)">
<path d="M144.753 1.07102L14.9793 39.2479C7.35831 41.4898 3.00544 49.4046 5.29543 56.8789L32.9925 147.279C35.2747 154.728 43.3368 159.018 50.9855 156.768L180.759 118.591C188.361 116.355 192.739 108.455 190.443 100.96L162.746 10.5601C160.463 3.11109 152.401 -1.17906 144.753 1.07102ZM145.612 10.6732L101.748 90.535L19.7045 47.7126L145.612 10.6732ZM41.6446 142.693L15.0813 55.9937L72.736 86.0863L41.6446 142.693ZM50.1264 147.166L81.2373 90.5235L101.452 101.074C103.792 102.296 106.7 101.434 107.957 99.1456L118.586 79.7934L176.079 110.113L50.1264 147.166ZM180.644 101.802L123.151 71.4821L154.094 15.146L180.644 101.802Z" fill="#F2EDDC"/>
</g>
<defs>
<filter id="filter0_d_180_1999" x="0.684814" y="0.471924" width="194.369" height="164.895" filterUnits="userSpaceOnUse" color-interpolation-filters="sRGB">
<feFlood flood-opacity="0" result="BackgroundImageFix"/>
<feColorMatrix in="SourceAlpha" type="matrix" values="0 0 0 0 0 0 0 0 0 0 0 0 0 0 0 0 0 0 127 0" result="hardAlpha"/>
<feOffset dy="4"/>
<feGaussianBlur stdDeviation="2"/>
<feComposite in2="hardAlpha" operator="out"/>
<feColorMatrix type="matrix" values="0 0 0 0 0 0 0 0 0 0 0 0 0 0 0 0 0 0 0.25 0"/>
<feBlend mode="normal" in2="BackgroundImageFix" result="effect1_dropShadow_180_1999"/>
<feBlend mode="normal" in="SourceGraphic" in2="effect1_dropShadow_180_1999" result="shape"/>
</filter>
</defs>
</svg>
